<svg xmlns="http://www.w3.org/2000/svg" viewBox="0 0 1000 800" id="jaf-interactive-map">
  <defs>
    <style>
      .building {
        fill: #d4a373;
        stroke: #8b6f47;
        stroke-width: 2;
        cursor: pointer;
        transition: all 0.3s ease;
      }
      .building:hover {
        fill: #e6b885;
        stroke: #6b5437;
        stroke-width: 3;
        filter: drop-shadow(0 4px 8px rgba(0,0,0,0.3));
      }
      .street {
        fill: #b0b0b0;
        stroke: #808080;
        stroke-width: 1;
      }
      .green-space {
        fill: #7db67d;
        opacity: 0.6;
      }
      .parking {
        fill: #c0c0c0;
        stroke: #909090;
        stroke-width: 1;
      }
      .fountain {
        fill: #3498db;
        opacity: 0.7;
      }
      .fountain-label {
        font-family: Arial, sans-serif;
        font-size: 9px;
        fill: #2c3e50;
        font-style: italic;
        pointer-events: none;
      }
      .label {
        font-family: Arial, sans-serif;
        font-size: 14px;
        fill: #2c3e50;
        font-weight: bold;
        pointer-events: none;
        text-anchor: middle;
      }
      .street-label {
        font-size: 11px;
        fill: #5a5a5a;
        font-style: italic;
      }
    </style>
  </defs>

  <!-- Background -->
  <rect width="1000" height="800" fill="#f5f5dc"/>

  <!-- Streets -->
  <path class="street" d="M 0,80 L 1000,80 L 1000,110 L 0,110 Z"/>
  <text x="500" y="100" class="label street-label">Résidence le Jardin aux Fontaines</text>

  <path class="street" d="M 0,720 L 1000,720 L 1000,750 L 0,750 Z"/>
  <text x="500" y="740" class="label street-label">Rue de Nazareth</text>

  <path class="street" d="M 40,80 L 70,80 L 70,800 L 40,800 Z"/>
  <text x="55" y="400" class="label street-label" transform="rotate(-90, 55, 400)">Rue du Pioch de Boutonnet</text>

  <!-- Parking areas with hatching -->
  <rect class="parking" x="80" y="130" width="180" height="80" rx="3"/>
  <text x="170" y="175" class="label street-label">Parking</text>

  <rect class="parking" x="720" y="600" width="220" height="100" rx="3"/>
  <text x="830" y="655" class="label street-label">Parking</text>

  <!-- Green spaces / Jardins -->
  <ellipse class="green-space" cx="300" cy="400" rx="70" ry="60"/>
  <ellipse class="green-space" cx="650" cy="250" rx="60" ry="50"/>
  <ellipse class="green-space" cx="850" cy="450" rx="50" ry="60"/>

  <!-- Fountains -->
  <circle class="fountain" cx="300" cy="400" r="8"/>
  <text x="300" y="425" class="fountain-label" text-anchor="middle">Fontaine des Chimères</text>

  <circle class="fountain" cx="480" cy="520" r="8"/>
  <text x="480" y="545" class="fountain-label" text-anchor="middle">Fontaine des Devins</text>

  <circle class="fountain" cx="650" cy="580" r="8"/>
  <text x="650" y="605" class="fountain-label" text-anchor="middle">Fontaine des Prophètes</text>

  <!-- Buildings based on official JAF plan -->

  <!-- Building A1 -->
  <g id="building-a1" class="building-group" data-building="a1">
    <rect class="building" x="100" y="240" width="120" height="140" rx="3"/>
    <text x="160" y="315" class="label">A1</text>
  </g>

  <!-- Building A2 -->
  <g id="building-a2" class="building-group" data-building="a2">
    <rect class="building" x="100" y="410" width="120" height="140" rx="3"/>
    <text x="160" y="485" class="label">A2</text>
  </g>

  <!-- Building A3 -->
  <g id="building-a3" class="building-group" data-building="a3">
    <rect class="building" x="100" y="580" width="120" height="120" rx="3"/>
    <text x="160" y="645" class="label">A3</text>
  </g>

  <!-- Building B1 -->
  <g id="building-b1" class="building-group" data-building="b1">
    <rect class="building" x="250" y="240" width="100" height="120" rx="3"/>
    <text x="300" y="305" class="label">B1</text>
  </g>

  <!-- Building B2 -->
  <g id="building-b2" class="building-group" data-building="b2">
    <rect class="building" x="250" y="580" width="100" height="120" rx="3"/>
    <text x="300" y="645" class="label">B2</text>
  </g>

  <!-- Building C -->
  <g id="building-c" class="building-group" data-building="c">
    <rect class="building" x="380" y="240" width="110" height="240" rx="3"/>
    <text x="435" y="365" class="label">C</text>
  </g>

  <!-- Building D -->
  <g id="building-d" class="building-group" data-building="d">
    <rect class="building" x="380" y="510" width="110" height="190" rx="3"/>
    <text x="435" y="610" class="label">D</text>
  </g>

  <!-- Building E1 -->
  <g id="building-e1" class="building-group" data-building="e1">
    <rect class="building" x="520" y="140" width="140" height="100" rx="3"/>
    <text x="590" y="195" class="label">E1</text>
  </g>

  <!-- Building E2 -->
  <g id="building-e2" class="building-group" data-building="e2">
    <rect class="building" x="520" y="270" width="140" height="100" rx="3"/>
    <text x="590" y="325" class="label">E2</text>
  </g>

  <!-- Building E3 -->
  <g id="building-e3" class="building-group" data-building="e3">
    <rect class="building" x="520" y="400" width="140" height="100" rx="3"/>
    <text x="590" y="455" class="label">E3</text>
  </g>

  <!-- Building F1 -->
  <g id="building-f1" class="building-group" data-building="f1">
    <rect class="building" x="520" y="530" width="140" height="80" rx="3"/>
    <text x="590" y="575" class="label">F1</text>
  </g>

  <!-- Building F2 -->
  <g id="building-f2" class="building-group" data-building="f2">
    <rect class="building" x="520" y="640" width="140" height="60" rx="3"/>
    <text x="590" y="675" class="label">F2</text>
  </g>

  <!-- Building G1 -->
  <g id="building-g1" class="building-group" data-building="g1">
    <rect class="building" x="690" y="140" width="120" height="100" rx="3"/>
    <text x="750" y="195" class="label">G1</text>
  </g>

  <!-- Building G2 -->
  <g id="building-g2" class="building-group" data-building="g2">
    <rect class="building" x="690" y="270" width="120" height="120" rx="3"/>
    <text x="750" y="335" class="label">G2</text>
  </g>

  <!-- Building G3 -->
  <g id="building-g3" class="building-group" data-building="g3">
    <rect class="building" x="690" y="420" width="120" height="150" rx="3"/>
    <text x="750" y="500" class="label">G3</text>
  </g>

  <!-- Building H1 -->
  <g id="building-h1" class="building-group" data-building="h1">
    <rect class="building" x="840" y="140" width="120" height="130" rx="3"/>
    <text x="900" y="210" class="label">H1</text>
  </g>

  <!-- Building H2 -->
  <g id="building-h2" class="building-group" data-building="h2">
    <rect class="building" x="840" y="300" width="120" height="120" rx="3"/>
    <text x="900" y="365" class="label">H2</text>
  </g>
</svg>
