<svg xmlns="http://www.w3.org/2000/svg" viewBox="0 0 1000 800" id="jaf-interactive-map">
  <defs>
    <style>
      .building {
        fill: #d4a373;
        stroke: #8b6f47;
        stroke-width: 2;
        cursor: pointer;
        transition: all 0.3s ease;
      }
      .building:hover {
        fill: #e6b885;
        stroke: #6b5437;
        stroke-width: 3;
        filter: drop-shadow(0 4px 8px rgba(0,0,0,0.3));
      }
      .street {
        fill: #b0b0b0;
        stroke: #808080;
        stroke-width: 1;
      }
      .green-space {
        fill: #7db67d;
        opacity: 0.6;
      }
      .parking {
        fill: #c0c0c0;
        stroke: #909090;
        stroke-width: 1;
      }
      .fountain {
        fill: #3498db;
        opacity: 0.7;
      }
      .fountain-label {
        font-family: Arial, sans-serif;
        font-size: 9px;
        fill: #2c3e50;
        font-style: italic;
        pointer-events: none;
      }
      .label {
        font-family: Arial, sans-serif;
        font-size: 14px;
        fill: #2c3e50;
        font-weight: bold;
        pointer-events: none;
        text-anchor: middle;
      }
      .street-label {
        font-size: 11px;
        fill: #5a5a5a;
        font-style: italic;
      }
    </style>
  </defs>

  <!-- Background -->
  <rect width="1000" height="800" fill="#f5f5dc"/>

  <!-- Streets -->
  <path class="street" d="M 0,80 L 1000,80 L 1000,110 L 0,110 Z"/>
  <text x="500" y="100" class="label street-label">Résidence le Jardin aux Fontaines</text>

  <path class="street" d="M 0,720 L 1000,720 L 1000,750 L 0,750 Z"/>
  <text x="500" y="740" class="label street-label">Rue de Nazareth</text>

  <path class="street" d="M 40,80 L 70,80 L 70,800 L 40,800 Z"/>
  <text x="55" y="400" class="label street-label" transform="rotate(-90, 55, 400)">Rue du Pioch de Boutonnet</text>

  <!-- Parking areas positioned per plan -->
  <rect class="parking" x="90" y="580" width="150" height="110" rx="3"/>
  <text x="165" y="640" class="label street-label">Parking</text>

  <rect class="parking" x="720" y="580" width="130" height="110" rx="3"/>
  <text x="785" y="640" class="label street-label">Parking</text>

  <!-- Green spaces / Jardins -->
  <ellipse class="green-space" cx="270" cy="440" rx="60" ry="70"/>
  <ellipse class="green-space" cx="610" cy="250" rx="50" ry="45"/>
  <ellipse class="green-space" cx="880" cy="480" rx="45" ry="55"/>

  <!-- Fountains positioned per JAF plan -->
  <circle class="fountain" cx="270" cy="440" r="8"/>
  <text x="270" y="470" class="fountain-label" text-anchor="middle">Fontaine des Chimères</text>

  <circle class="fountain" cx="450" cy="620" r="8"/>
  <text x="450" y="645" class="fountain-label" text-anchor="middle">Fontaine des Devins</text>

  <circle class="fountain" cx="610" cy="650" r="8"/>
  <text x="610" y="675" class="fountain-label" text-anchor="middle">Fontaine des Prophètes</text>

  <!-- Buildings positioned according to official JAF site plan -->

  <!-- West side - A buildings along Rue du Pioch de Boutonnet -->

  <!-- Building A1 (Northwest corner) -->
  <g id="building-a1" class="building-group" data-building="a1">
    <rect class="building" x="90" y="140" width="150" height="90" rx="3"/>
    <text x="165" y="190" class="label">A1</text>
  </g>

  <!-- Building A2 (West side, middle) -->
  <g id="building-a2" class="building-group" data-building="a2">
    <rect class="building" x="90" y="260" width="150" height="130" rx="3"/>
    <text x="165" y="330" class="label">A2</text>
  </g>

  <!-- Building A3 (West side, lower) -->
  <g id="building-a3" class="building-group" data-building="a3">
    <rect class="building" x="90" y="420" width="150" height="130" rx="3"/>
    <text x="165" y="490" class="label">A3</text>
  </g>

  <!-- Central buildings - B group -->

  <!-- Building B1 (North central-west) -->
  <g id="building-b1" class="building-group" data-building="b1">
    <rect class="building" x="270" y="260" width="100" height="110" rx="3"/>
    <text x="320" y="320" class="label">B1</text>
  </g>

  <!-- Building B2 (South central-west) -->
  <g id="building-b2" class="building-group" data-building="b2">
    <rect class="building" x="270" y="580" width="100" height="110" rx="3"/>
    <text x="320" y="640" class="label">B2</text>
  </g>

  <!-- Building C (Central, tall building) -->
  <g id="building-c" class="building-group" data-building="c">
    <rect class="building" x="400" y="260" width="100" height="200" rx="3"/>
    <text x="450" y="365" class="label">C</text>
  </g>

  <!-- Building D (South central) -->
  <g id="building-d" class="building-group" data-building="d">
    <rect class="building" x="400" y="490" width="100" height="200" rx="3"/>
    <text x="450" y="595" class="label">D</text>
  </g>

  <!-- East central buildings - E group -->

  <!-- Building E1 (North, upper) -->
  <g id="building-e1" class="building-group" data-building="e1">
    <rect class="building" x="530" y="140" width="160" height="90" rx="3"/>
    <text x="610" y="190" class="label">E1</text>
  </g>

  <!-- Building E2 (North central) -->
  <g id="building-e2" class="building-group" data-building="e2">
    <rect class="building" x="530" y="260" width="160" height="90" rx="3"/>
    <text x="610" y="310" class="label">E2</text>
  </g>

  <!-- Building E3 (Central) -->
  <g id="building-e3" class="building-group" data-building="e3">
    <rect class="building" x="530" y="380" width="160" height="90" rx="3"/>
    <text x="610" y="430" class="label">E3</text>
  </g>

  <!-- South buildings - F group -->

  <!-- Building F1 (South central-east) -->
  <g id="building-f1" class="building-group" data-building="f1">
    <rect class="building" x="530" y="500" width="160" height="90" rx="3"/>
    <text x="610" y="550" class="label">F1</text>
  </g>

  <!-- Building F2 (South, lower) -->
  <g id="building-f2" class="building-group" data-building="f2">
    <rect class="building" x="530" y="620" width="160" height="70" rx="3"/>
    <text x="610" y="660" class="label">F2</text>
  </g>

  <!-- East side - G buildings -->

  <!-- Building G1 (Northeast) -->
  <g id="building-g1" class="building-group" data-building="g1">
    <rect class="building" x="720" y="140" width="130" height="90" rx="3"/>
    <text x="785" y="190" class="label">G1</text>
  </g>

  <!-- Building G2 (East central) -->
  <g id="building-g2" class="building-group" data-building="g2">
    <rect class="building" x="720" y="260" width="130" height="110" rx="3"/>
    <text x="785" y="320" class="label">G2</text>
  </g>

  <!-- Building G3 (East south) -->
  <g id="building-g3" class="building-group" data-building="g3">
    <rect class="building" x="720" y="400" width="130" height="150" rx="3"/>
    <text x="785" y="480" class="label">G3</text>
  </g>

  <!-- Far east - H buildings -->

  <!-- Building H1 (Far northeast) -->
  <g id="building-h1" class="building-group" data-building="h1">
    <rect class="building" x="880" y="140" width="90" height="120" rx="3"/>
    <text x="925" y="205" class="label">H1</text>
  </g>

  <!-- Building H2 (Far east central) -->
  <g id="building-h2" class="building-group" data-building="h2">
    <rect class="building" x="880" y="290" width="90" height="120" rx="3"/>
    <text x="925" y="355" class="label">H2</text>
  </g>
</svg>
